<svg width="34" height="42" viewBox="0 0 34 42" fill="none" xmlns="http://www.w3.org/2000/svg">
<ellipse opacity="0.33" cx="17.5" cy="38.5" rx="11.5" ry="3.5" fill="#525470"/>
<path d="M32 16.7273C32 28.1818 17 38 17 38C17 38 2 28.1818 2 16.7273C2 12.8214 3.58035 9.07542 6.3934 6.31352C9.20644 3.55162 13.0218 2 17 2C20.9782 2 24.7936 3.55162 27.6066 6.31352C30.4196 9.07542 32 12.8214 32 16.7273Z" stroke="#90AB75" stroke-width="3" stroke-linecap="round" stroke-linejoin="round"/>
<path d="M17 21.6364C19.7614 21.6364 22 19.4385 22 16.7273C22 14.0161 19.7614 11.8182 17 11.8182C14.2386 11.8182 12 14.0161 12 16.7273C12 19.4385 14.2386 21.6364 17 21.6364Z" stroke="#90AB75" stroke-width="3" stroke-linecap="round" stroke-linejoin="round"/>
</svg>
