<?xml version="1.0" encoding="utf-8"?><svg viewBox="0 0 24 24" xmlns="http://www.w3.org/2000/svg" xmlns:xlink="http://www.w3.org/1999/xlink"><style>:root>svg{display:none}:root>svg:target{display:block}</style><svg fill="currentColor" viewBox="0 0 14 9" id="arrow-down" xmlns="http://www.w3.org/2000/svg"><path fill-rule="evenodd" clip-rule="evenodd" d="M.294.792a1 1 0 011.414.002l5.28 5.29 5.28-5.29a1 1 0 111.416 1.412l-5.988 6a1 1 0 01-1.416 0l-5.988-6A1 1 0 01.294.792z"/></svg><svg fill="currentColor" viewBox="0 0 24 24" id="icon-cart" xmlns="http://www.w3.org/2000/svg"><path fill-rule="evenodd" clip-rule="evenodd" d="M0 1.5a1 1 0 011-1h4a1 1 0 01.98.804L6.82 5.5H23a1 1 0 01.982 1.187l-1.601 8.398a3 3 0 01-2.99 2.415H9.69a3 3 0 01-2.99-2.414L5.03 6.739a.994.994 0 01-.017-.084L4.18 2.5H1a1 1 0 01-1-1zm7.22 6l1.44 7.195a1 1 0 001 .805h9.76a1 1 0 00.998-.802L21.792 7.5H7.221zM7 21.5a2 2 0 114 0 2 2 0 01-4 0zm11 0a2 2 0 114 0 2 2 0 01-4 0z"/></svg><svg fill="currentColor" viewBox="0 0 18 18" id="icon-clock" xmlns="http://www.w3.org/2000/svg"><path fill-rule="evenodd" clip-rule="evenodd" d="M9 1.75a7.25 7.25 0 100 14.5 7.25 7.25 0 000-14.5zM.25 9a8.75 8.75 0 1117.5 0A8.75 8.75 0 01.25 9zm14.198-3.178a.75.75 0 01-.27 1.026l-4.8 2.8a.75.75 0 01-.964-.18l-1.6-2a.75.75 0 111.172-.937L9.18 8.026l4.241-2.474a.75.75 0 011.026.27z"/></svg><svg fill="currentColor" viewBox="0 0 14 14" id="icon-download" xmlns="http://www.w3.org/2000/svg"><path fill-rule="evenodd" clip-rule="evenodd" d="M12.4 8.05a.75.75 0 01.75.75v2.4a1.95 1.95 0 01-1.95 1.95H2.8A1.95 1.95 0 01.85 11.2V8.8a.75.75 0 111.5 0v2.4a.45.45 0 00.45.45h8.4a.45.45 0 00.45-.45V8.8a.75.75 0 01.75-.75zm-1.87-2.78a.75.75 0 010 1.06l-3 3a.75.75 0 01-1.06 0l-3-3a.75.75 0 011.06-1.06l1.72 1.72V1.6a.75.75 0 111.5 0v5.39l1.72-1.72a.75.75 0 011.06 0z"/></svg><svg fill="currentColor" viewBox="0 0 24 20" id="icon-filter" xmlns="http://www.w3.org/2000/svg"><path fill-rule="evenodd" clip-rule="evenodd" d="M4 0a1 1 0 011 1v7a1 1 0 01-2 0V1a1 1 0 011-1zm8 0a1 1 0 011 1v4h2a1 1 0 110 2H9a1 1 0 010-2h2V1a1 1 0 011-1zm8 0a1 1 0 011 1v9a1 1 0 11-2 0V1a1 1 0 011-1zm-8 9a1 1 0 011 1v9a1 1 0 11-2 0v-9a1 1 0 011-1zM0 12a1 1 0 011-1h6a1 1 0 110 2H5v6a1 1 0 11-2 0v-6H1a1 1 0 01-1-1zm16 2a1 1 0 011-1h6a1 1 0 110 2h-2v4a1 1 0 11-2 0v-4h-2a1 1 0 01-1-1z"/></svg><svg fill="currentColor" viewBox="0 0 14 15" id="icon-globe" xmlns="http://www.w3.org/2000/svg"><path fill-rule="evenodd" clip-rule="evenodd" d="M1.803 6.65h2.09a9.93 9.93 0 011.4-4.216 5.256 5.256 0 00-3.49 4.216zM7 2.579A8.43 8.43 0 005.4 6.65h3.2A8.43 8.43 0 007 2.579zM8.6 8.15A8.43 8.43 0 017 12.221 8.43 8.43 0 015.4 8.15h3.2zm-4.707 0h-2.09a5.256 5.256 0 003.49 4.216 9.93 9.93 0 01-1.4-4.216zm4.815 4.216a9.93 9.93 0 001.4-4.216h2.089a5.256 5.256 0 01-3.49 4.216zm3.489-5.716h-2.09a9.93 9.93 0 00-1.4-4.216 5.256 5.256 0 013.49 4.216zM.25 7.4a6.75 6.75 0 1113.5 0 6.75 6.75 0 01-13.5 0z"/></svg><svg fill="currentColor" viewBox="0 0 16 17" id="icon-home" xmlns="http://www.w3.org/2000/svg"><path fill-rule="evenodd" clip-rule="evenodd" d="M7.55.4a.75.75 0 01.9 0l7 5.25a.75.75 0 01.3.6v8.25c0 .606-.25 1.18-.685 1.6a2.335 2.335 0 01-1.62.65H2.554c-.602 0-1.186-.23-1.62-.65a2.223 2.223 0 01-.685-1.6V6.25a.75.75 0 01.3-.6l7-5.25zM6.417 15.25h3.166v-6H6.417v6zm4.666 0V8.5a.75.75 0 00-.75-.75H5.667a.75.75 0 00-.75.75v6.75H2.556a.835.835 0 01-.58-.23.724.724 0 01-.226-.52V6.625L8 1.937l6.25 4.688V14.5c0 .19-.078.378-.226.52a.836.836 0 01-.58.23h-2.36z"/></svg><svg fill="currentColor" viewBox="0 0 18 15" id="icon-mail" xmlns="http://www.w3.org/2000/svg"><path fill-rule="evenodd" clip-rule="evenodd" d="M1.817 2.286L9 7.392l7.183-5.106a.858.858 0 00-.783-.536H2.6a.858.858 0 00-.783.536zM16.25 4.078L9.435 8.924a.75.75 0 01-.87 0L1.75 4.078v8.297c0 .49.395.875.85.875h12.8c.455 0 .85-.384.85-.875V4.078zm-16-1.453C.25 1.328 1.295.25 2.6.25h12.8c1.305 0 2.35 1.078 2.35 2.375v9.75c0 1.297-1.045 2.375-2.35 2.375H2.6c-1.305 0-2.35-1.078-2.35-2.375v-9.75z"/></svg><svg fill="currentColor" viewBox="0 0 17 20" id="icon-map-pin" xmlns="http://www.w3.org/2000/svg"><path fill-rule="evenodd" clip-rule="evenodd" d="M8.5 1.75c-1.795 0-3.513.7-4.778 1.942A6.546 6.546 0 001.75 8.364c0 2.557 1.693 5.031 3.54 6.945a24.448 24.448 0 003.21 2.777 24.452 24.452 0 003.21-2.778c1.847-1.913 3.54-4.387 3.54-6.944 0-1.75-.708-3.43-1.972-4.672A6.821 6.821 0 008.5 1.75zM8.5 19c-.41.628-.41.627-.411.627l-.002-.001-.006-.004-.019-.012a12.866 12.866 0 01-.318-.22 25.935 25.935 0 01-3.534-3.04C2.307 14.377.25 11.534.25 8.364c0-2.157.873-4.222 2.421-5.742A8.321 8.321 0 018.5.25a8.32 8.32 0 015.829 2.372 8.046 8.046 0 012.421 5.742c0 3.17-2.057 6.013-3.96 7.986a25.925 25.925 0 01-3.784 3.214l-.068.046-.02.012-.005.004h-.001v.001L8.5 19zm0 0l.41.628a.75.75 0 01-.82 0L8.5 19zm0-12.34c-.98 0-1.75.775-1.75 1.704 0 .928.77 1.704 1.75 1.704s1.75-.776 1.75-1.704c0-.929-.77-1.705-1.75-1.705zM5.25 8.363c0-1.783 1.468-3.205 3.25-3.205s3.25 1.422 3.25 3.205c0 1.782-1.468 3.204-3.25 3.204s-3.25-1.422-3.25-3.204z"/></svg><svg fill="currentColor" viewBox="0 0 17 17" id="icon-phone" xmlns="http://www.w3.org/2000/svg"><path d="M13.435 10.53c-.348-.361-.767-.555-1.212-.555-.442 0-.865.19-1.227.552l-1.134 1.13c-.094-.05-.187-.096-.277-.143-.129-.065-.25-.126-.355-.19-1.062-.675-2.027-1.554-2.953-2.691-.448-.567-.75-1.044-.968-1.529.294-.269.567-.549.832-.818l.301-.305c.754-.753.754-1.729 0-2.482l-.98-.98c-.11-.111-.225-.226-.333-.34a16.951 16.951 0 00-.674-.668C4.107 1.166 3.69.983 3.253.983c-.438 0-.861.183-1.22.528l-.007.007-1.22 1.23a2.625 2.625 0 00-.779 1.669c-.086 1.048.223 2.024.46 2.662.58 1.568 1.449 3.021 2.744 4.579a16.885 16.885 0 005.623 4.402c.825.391 1.926.854 3.157.933.075.003.154.007.226.007.829 0 1.525-.298 2.07-.89.004-.007.011-.01.015-.018.186-.226.402-.43.628-.65.154-.146.312-.3.466-.462.355-.37.542-.8.542-1.241 0-.445-.19-.872-.553-1.231l-1.97-1.977zm1.285 3.779c-.004 0-.004.004 0 0-.14.15-.284.287-.438.438-.233.222-.47.455-.692.717-.363.388-.79.57-1.35.57-.053 0-.11 0-.165-.003-1.065-.068-2.055-.484-2.798-.84a15.938 15.938 0 01-5.296-4.147C2.758 9.569 1.94 8.206 1.398 6.742c-.334-.893-.456-1.59-.402-2.246.036-.42.197-.768.495-1.066l1.224-1.223c.175-.165.362-.255.545-.255.226 0 .409.136.524.251l.01.011c.22.205.427.416.646.642l.341.348.98.98c.38.38.38.732 0 1.112-.104.104-.205.208-.309.309a18.73 18.73 0 01-.9.875c-.008.007-.015.01-.018.018-.309.309-.252.61-.187.815l.01.032c.256.617.614 1.198 1.16 1.89l.003.004c.99 1.22 2.035 2.171 3.186 2.9.148.093.298.168.442.24.129.064.25.125.355.19l.043.025c.122.061.237.09.355.09.298 0 .485-.187.546-.248l1.227-1.227c.122-.122.315-.27.542-.27.222 0 .405.14.516.263a.479.479 0 01.007.007l1.977 1.977c.37.366.37.743.004 1.123zM9.187 4.044a4.55 4.55 0 012.476 1.284 4.574 4.574 0 011.284 2.476c.04.237.244.402.478.402.028 0 .053-.004.082-.007a.485.485 0 00.398-.56 5.534 5.534 0 00-1.553-2.996 5.534 5.534 0 00-2.996-1.554.487.487 0 00-.56.395.48.48 0 00.391.56zM16.98 7.5a9.104 9.104 0 00-2.558-4.934A9.104 9.104 0 009.49.007a.483.483 0 10-.158.955 8.152 8.152 0 014.41 2.285 8.128 8.128 0 012.285 4.41c.04.237.244.402.477.402.029 0 .054-.004.083-.007a.475.475 0 00.394-.553z"/></svg><svg fill="currentColor" viewBox="0 0 14 14" id="icon-search" xmlns="http://www.w3.org/2000/svg"><path fill-rule="evenodd" clip-rule="evenodd" d="M6.333 2a4.333 4.333 0 102.99 7.47 1.015 1.015 0 01.146-.146A4.333 4.333 0 006.333 2zm5.13 8.049a6.333 6.333 0 10-1.414 1.414l2.244 2.244a1 1 0 001.414-1.414l-2.244-2.244z"/></svg><svg fill="currentColor" viewBox="0 0 14 14" id="icon-share" xmlns="http://www.w3.org/2000/svg"><path fill-rule="evenodd" clip-rule="evenodd" d="M10.6 1.75a1.05 1.05 0 100 2.1 1.05 1.05 0 000-2.1zM8.873 4.676a2.55 2.55 0 10-.756-1.295l-2.99 1.743a2.55 2.55 0 100 3.751l2.99 1.742a2.55 2.55 0 10.758-1.295L5.884 7.58a2.558 2.558 0 000-1.16l2.989-1.744zM4.29 6.442a.757.757 0 00.034.06 1.045 1.045 0 01-.034 1.056 1.05 1.05 0 110-1.116zm5.368 4.295a.744.744 0 00.076-.131 1.049 1.049 0 011.916.594 1.05 1.05 0 11-1.992-.463z"/></svg><svg fill="currentColor" viewBox="0 0 18 20" id="icon-signin" xmlns="http://www.w3.org/2000/svg"><path fill-rule="evenodd" clip-rule="evenodd" d="M9 2a3 3 0 100 6 3 3 0 000-6zM4 5a5 5 0 1110 0A5 5 0 014 5zm-2.536 8.464A5 5 0 015 12h8a5 5 0 015 5v2a1 1 0 11-2 0v-2a3 3 0 00-3-3H5a3 3 0 00-3 3v2a1 1 0 11-2 0v-2a5 5 0 011.464-3.536z"/></svg><svg fill="currentColor" viewBox="0 0 16 15" id="icon-star" xmlns="http://www.w3.org/2000/svg"><path d="M8 0l2.318 4.695 5.182.757-3.75 3.653.885 5.16L8 11.827l-4.635 2.438.885-5.16L.5 5.452l5.183-.757L8 0z"/></svg><svg fill="currentColor" viewBox="0 0 16 16" id="slider-arrow-left" xmlns="http://www.w3.org/2000/svg"><path fill-rule="evenodd" clip-rule="evenodd" d="M8.707 15.707a1 1 0 000-1.414L3.414 9H15a1 1 0 100-2H3.414l5.293-5.293A1 1 0 007.293.293l-7 7a1 1 0 000 1.414l7 7a1 1 0 001.414 0z"/></svg><svg fill="currentColor" viewBox="0 0 16 16" id="slider-arrow-right" xmlns="http://www.w3.org/2000/svg"><path fill-rule="evenodd" clip-rule="evenodd" d="M7.293.293a1 1 0 000 1.414L12.586 7H1a1 1 0 000 2h11.586l-5.293 5.293a1 1 0 101.414 1.414l7-7a1 1 0 000-1.414l-7-7a1 1 0 00-1.414 0z"/></svg><svg fill="currentColor" viewBox="0 0 12 23" id="social-fb" xmlns="http://www.w3.org/2000/svg"><path d="M7.657 12.365h3.722l.585-3.804H7.656V6.48c0-1.58.514-2.981 1.983-2.981H12V.18C11.585.123 10.708 0 9.05 0 5.588 0 3.559 1.84 3.559 6.03v2.53H0v3.805h3.559V22.82a14.33 14.33 0 002.151.18c.662 0 1.309-.062 1.947-.149V12.365z"/></svg><svg fill="currentColor" viewBox="0 0 20 20" id="social-ig" xmlns="http://www.w3.org/2000/svg"><path d="M10 1.807h4.096c.964 0 1.446.241 1.808.362.482.24.843.361 1.204.723.362.361.603.723.723 1.204.12.362.241.844.362 1.808v8.192c0 .964-.241 1.446-.362 1.808-.24.482-.361.843-.723 1.204-.361.362-.723.603-1.204.723-.362.12-.844.241-1.808.362H5.904c-.964 0-1.446-.241-1.808-.362-.482-.24-.843-.361-1.204-.723-.362-.36-.603-.722-.723-1.204-.12-.362-.241-.844-.362-1.808V10 5.904c0-.964.241-1.446.362-1.808.24-.481.361-.843.723-1.204.361-.362.722-.603 1.204-.723.362-.12.844-.241 1.808-.362H10zM10 0H5.904c-1.085 0-1.808.241-2.41.482a5.26 5.26 0 00-1.807 1.205C1.084 2.289.843 2.77.482 3.494.24 4.096.12 4.819 0 5.904v8.192c0 1.085.241 1.808.482 2.41a5.26 5.26 0 001.205 1.807c.602.603 1.084.844 1.807 1.205.602.241 1.325.362 2.41.482h8.192c1.085 0 1.808-.24 2.41-.482a5.261 5.261 0 001.807-1.205c.603-.602.844-1.084 1.205-1.807.241-.602.361-1.325.482-2.41V10 5.904c0-1.085-.241-1.808-.482-2.41a5.261 5.261 0 00-1.205-1.807c-.602-.603-1.084-.844-1.807-1.205-.602-.241-1.325-.361-2.41-.482H10z"/><path d="M10 4.82A5.142 5.142 0 004.82 10c0 2.892 2.288 5.18 5.18 5.18s5.18-2.288 5.18-5.18c0-2.891-2.288-5.18-5.18-5.18zm0 8.554A3.368 3.368 0 016.627 10 3.368 3.368 0 0110 6.627 3.368 3.368 0 0113.373 10c0 1.807-1.566 3.374-3.373 3.374zM15.301 5.904a1.205 1.205 0 100-2.41 1.205 1.205 0 000 2.41z"/></svg><svg fill="currentColor" viewBox="0 0 14 23" id="social-ok" xmlns="http://www.w3.org/2000/svg"><path d="M13.238 13.793c.524-.525.6-1.274.15-2.024-.375-.6-1.05-.9-1.8-.75-.3.075-.6.225-.899.45-2.324 1.574-5.472 1.5-7.796-.075l-.45-.225c-.824-.375-1.649-.225-2.099.525-.524.75-.45 1.574.225 2.249.15.15.3.225.375.375l.075.075c1.05.824 2.324 1.349 3.973 1.574l-.975.974L1.47 19.49c-.225.225-.525.6-.525 1.124 0 .675.375 1.35 1.05 1.65.224.15.45.15.674.15.375 0 .825-.15 1.125-.525l2.923-2.924.075-.075s.075 0 .075.075c.6.675 1.274 1.274 1.874 1.95l.9.899c.374.375.674.524 1.124.524.675.075 1.424-.374 1.724-1.05.3-.599.15-1.348-.375-1.798-.75-.75-1.499-1.574-2.324-2.324l-1.274-1.274c.675-.075 1.424-.225 2.099-.525 1.124-.375 1.949-.9 2.624-1.574z"/><path d="M6.791 11.694c3.223 0 5.847-2.549 5.847-5.772 0-1.574-.6-3.073-1.724-4.198C9.789.6 8.365 0 6.866 0 3.643 0 1.094 2.624 1.019 5.772c0 1.574.6 2.998 1.724 4.123 1.05 1.2 2.474 1.799 4.048 1.799zm-1.65-7.496c.45-.45 1.05-.675 1.65-.675 1.35 0 2.324 1.05 2.324 2.324 0 1.35-1.05 2.324-2.324 2.324-1.35 0-2.324-1.05-2.324-2.324 0-.6.225-1.2.675-1.65z"/><path d="M13.238 13.793c.524-.525.6-1.274.15-2.024-.375-.6-1.05-.9-1.8-.75-.3.075-.6.225-.899.45-2.324 1.574-5.472 1.5-7.796-.075l-.45-.225c-.824-.375-1.649-.225-2.099.525-.524.75-.45 1.574.225 2.249.15.15.3.225.375.375l.075.075c1.05.824 2.324 1.349 3.973 1.574l-.975.974L1.47 19.49c-.225.225-.525.6-.525 1.124 0 .675.375 1.35 1.05 1.65.224.15.45.15.674.15.375 0 .825-.15 1.125-.525l2.923-2.924.075-.075s.075 0 .075.075c.6.675 1.274 1.274 1.874 1.95l.9.899c.374.375.674.524 1.124.524.675.075 1.424-.374 1.724-1.05.3-.599.15-1.348-.375-1.798-.75-.75-1.499-1.574-2.324-2.324l-1.274-1.274c.675-.075 1.424-.225 2.099-.525 1.124-.375 1.949-.9 2.624-1.574z"/></svg><svg fill="currentColor" viewBox="0 0 19 17" id="social-tg" xmlns="http://www.w3.org/2000/svg"><path d="M19 .602l-3.005 15.69s-.42 1.088-1.576.566l-6.934-5.505-.033-.017c.937-.87 8.2-7.633 8.518-7.94.491-.475.186-.757-.384-.399l-10.73 7.056L.719 8.611s-.652-.24-.714-.762c-.064-.522.735-.805.735-.805L17.613.189S19-.442 19 .602z"/></svg><svg fill="currentColor" viewBox="0 0 21 23" id="social-vb" xmlns="http://www.w3.org/2000/svg"><path d="M16.254.546a30.984 30.984 0 00-11.581 0C2.987.91.86 2.948.495 4.549a22.87 22.87 0 000 9.463c.44 1.601 2.565 3.64 4.178 4.003.073 0 .146.073.146.146v4.585c0 .219.294.364.44.146l2.2-2.256s1.758-1.82 2.051-2.111c0 0 .074-.073.147-.073 2.199.073 4.471-.146 6.67-.51 1.686-.364 3.812-2.402 4.178-4.003.66-3.13.66-6.333 0-9.463-.44-1.528-2.565-3.566-4.251-3.93zm.073 13.684c-.366.728-.806 1.31-1.539 1.674l-.66.219a9.276 9.276 0 01-.733-.219c-2.345-.946-4.544-2.256-6.303-4.149a17.504 17.504 0 01-2.42-3.64c-.292-.654-.586-1.236-.806-1.892-.22-.582.147-1.164.514-1.6.366-.438.806-.729 1.319-.947.366-.219.733-.073 1.026.218.587.728 1.173 1.456 1.613 2.257.293.51.22 1.091-.293 1.455-.147.073-.22.146-.367.292-.073.072-.22.145-.293.29-.147.22-.147.437-.073.656.586 1.674 1.685 2.984 3.371 3.712.293.146.513.218.88.218.513-.072.733-.655 1.1-.946.366-.291.806-.291 1.245-.073.367.219.733.51 1.173.801.367.291.733.51 1.1.8.22.146.293.51.146.874zM13.25 8.771c-.147 0-.074 0 0 0-.293 0-.367-.146-.44-.364 0-.146 0-.364-.073-.51a1.383 1.383 0 00-.514-.8l-.44-.218c-.22-.073-.366-.073-.586-.073-.22-.073-.293-.219-.293-.437 0-.146.22-.291.367-.291 1.172.073 2.052.728 2.199 2.11v.292c0 .145-.074.291-.22.291zm-.733-3.203c-.367-.145-.733-.29-1.173-.364-.147 0-.367-.072-.513-.072-.22 0-.367-.146-.293-.364 0-.219.146-.364.366-.292.733.073 1.393.219 2.053.51 1.319.655 2.052 1.747 2.272 3.203v.946c-.073.291-.587.364-.66 0 0-.073-.073-.218-.073-.291 0-.655-.147-1.31-.44-1.893-.44-.655-.953-1.092-1.54-1.383zm3.958 4.368c-.22 0-.367-.219-.367-.437 0-.437-.073-.874-.146-1.31-.293-2.33-2.2-4.222-4.472-4.586-.366-.073-.732-.073-1.026-.146-.22 0-.513 0-.586-.29-.073-.22.147-.437.366-.437h.147c3.005.072.147 0 0 0 3.079.072 5.644 2.11 6.157 5.168.073.51.147 1.019.147 1.6.146.22 0 .438-.22.438z"/></svg><svg fill="currentColor" viewBox="0 0 22 14" id="social-vk" xmlns="http://www.w3.org/2000/svg"><path d="M11.982 14C4.466 14 .18 8.745 0 0h3.765c.124 6.418 2.9 9.137 5.098 9.698V0h3.546v5.536C14.579 5.297 16.86 2.775 17.63 0h3.546a10.79 10.79 0 01-1.698 4.003 10.557 10.557 0 01-3.126 2.976 10.894 10.894 0 013.563 2.893A11.152 11.152 0 0122 14h-3.903a6.94 6.94 0 00-2.104-3.377 6.726 6.726 0 00-3.585-1.626V14h-.425z"/></svg><svg fill="currentColor" viewBox="0 0 21 21" id="social-wa" xmlns="http://www.w3.org/2000/svg"><path d="M17.927 3.063A10.428 10.428 0 0010.537 0C4.757 0 .073 4.667.073 10.427c0 1.823.512 3.646 1.39 5.177L0 21l5.561-1.458c1.537.802 3.22 1.24 4.976 1.24 5.78 0 10.463-4.667 10.463-10.428-.073-2.698-1.098-5.323-3.073-7.291zm-2.342 11.083c-.22.583-1.244 1.166-1.756 1.24a4.104 4.104 0 01-1.61-.073c-.365-.146-.877-.292-1.463-.584-2.634-1.094-4.317-3.719-4.463-3.937-.147-.146-1.098-1.386-1.098-2.698 0-1.313.659-1.896.878-2.188.22-.291.512-.291.732-.291h.512c.146 0 .366-.073.585.437.22.51.732 1.823.805 1.896a.463.463 0 010 .437 1.525 1.525 0 01-.292.438c-.147.146-.293.364-.366.437-.147.146-.293.292-.147.51.147.293.659 1.095 1.464 1.824 1.024.875 1.83 1.166 2.122 1.312.293.146.439.073.585-.073.146-.146.659-.729.805-1.02.146-.292.366-.22.585-.146.22.073 1.537.729 1.757.875.292.146.438.218.512.291.073.22.073.73-.147 1.313z"/></svg><svg fill="currentColor" viewBox="0 0 23 16" id="social-yt" xmlns="http://www.w3.org/2000/svg"><path d="M23 6.141c0-.484-.084-1.05-.084-1.697-.084-.646-.168-1.292-.252-1.858-.168-.647-.42-1.131-.923-1.535-.42-.405-1.007-.647-1.595-.728C18.216.081 15.361 0 11.5 0 7.639 0 4.7.08 2.854.323c-.588.081-1.175.323-1.595.728-.42.404-.755.888-.923 1.535-.168.566-.252 1.131-.252 1.858A12.632 12.632 0 000 6.141V9.86c0 .484.084 1.05.084 1.697.084.646.168 1.293.252 1.858.168.647.42 1.132.923 1.536.42.404 1.007.646 1.595.727 1.93.242 4.785.323 8.646.323 3.861 0 6.8-.08 8.646-.323.588-.081 1.175-.323 1.595-.727.42-.404.755-.89.923-1.536.168-.566.252-1.131.252-1.858.084-.647.084-1.213.084-1.697V8 6.141zm-7.051 2.505l-6.631 3.96a.654.654 0 01-.42.162c-.168 0-.252 0-.42-.081-.252-.162-.42-.404-.42-.727v-8c0-.324.168-.566.42-.728a.787.787 0 01.84 0l6.63 3.96c.253.162.42.404.42.646 0 .243-.167.647-.42.808z"/></svg></svg>